<svg width="48" height="47" viewBox="0 0 48 47" fill="none" xmlns="http://www.w3.org/2000/svg">
<path d="M36.9322 24.5805C36.923 23.757 36.7303 22.9439 36.43 22.1802C36.1983 21.5889 35.9292 21.0132 35.6665 20.4353C33.5756 15.8787 31.3815 11.3703 29.0858 6.91342C28.7629 6.29067 28.4468 5.66416 28.1058 5.05104C27.7707 4.45297 27.3806 3.87722 26.8756 3.4091C26.0698 2.64088 24.9885 2.18287 23.8789 2.11378H23.368C22.2256 2.17018 21.1106 2.64958 20.2909 3.44858C19.8044 3.90941 19.428 4.4713 19.1018 5.05269C18.7653 5.6557 18.4537 6.27234 18.1369 6.88522C16.5964 9.87543 15.1014 12.8888 13.6521 15.9243C12.7883 17.7408 11.9317 19.5604 11.1078 21.3948C10.7661 22.159 10.4571 22.9493 10.3408 23.7836C10.1253 25.1922 10.4343 26.6706 11.1868 27.8801C11.8354 28.9308 12.809 29.7775 13.9438 30.2665C14.8309 30.6494 15.7951 30.8201 16.7598 30.765C18.0483 30.6966 19.2907 30.2336 20.3809 29.558C21.597 28.8117 22.6371 27.819 23.6056 26.7798C24.5061 27.7504 25.4698 28.6765 26.5823 29.4024C27.6567 30.1093 28.8818 30.6212 30.1703 30.7429C31.5697 30.8891 33.0197 30.5422 34.1942 29.7632C35.233 29.0748 36.0375 28.0863 36.5005 26.9293C36.7986 26.1827 36.9453 25.3843 36.9322 24.5805ZM23.6114 24.0372C23.2601 23.6236 22.9506 23.1761 22.6397 22.732C22.1166 21.9647 21.641 21.1626 21.2584 20.3152C20.9449 19.6121 20.6932 18.874 20.595 18.1074C20.5233 17.4992 20.5405 16.8647 20.7637 16.2873C20.9635 15.7459 21.3474 15.2768 21.8339 14.9669C22.9929 14.2189 24.645 14.2997 25.6952 15.207C26.2268 15.6599 26.5442 16.3294 26.6241 17.0175C26.7287 17.9321 26.5207 18.8507 26.2014 19.7038C25.5984 21.2867 24.6438 22.7057 23.6114 24.0372ZM34.9838 25.9771C34.6741 27.0461 33.9296 27.98 32.9555 28.5188C32.0921 29.0018 31.0616 29.1672 30.0883 29.0046C28.8486 28.8117 27.7364 28.1539 26.7727 27.3775C26.0644 26.8083 25.4266 26.1578 24.8156 25.4873C25.7803 24.2672 26.689 22.9907 27.3832 21.5953C27.989 20.3733 28.4494 19.0493 28.4931 17.6752C28.5178 16.8034 28.3537 15.9156 27.9465 15.1394C27.4133 14.1023 26.458 13.3057 25.3629 12.9203C24.3399 12.5548 23.2028 12.5222 22.1591 12.8197C21.175 13.0981 20.2761 13.6896 19.6601 14.5096C19.118 15.2244 18.809 16.1033 18.7373 16.9947C18.6271 18.2785 18.9488 19.5592 19.4355 20.7394C20.1591 22.4638 21.221 24.0247 22.3939 25.4725C21.865 26.0833 21.2911 26.6536 20.677 27.1786C19.7248 27.9845 18.6353 28.6859 17.4011 28.9529C16.4033 29.1768 15.3267 29.0655 14.4117 28.6025C13.3398 28.0684 12.5169 27.0623 12.2064 25.9059C11.9691 25.0564 12.0217 24.1392 12.3039 23.307C12.5387 22.6185 12.8571 21.9623 13.1551 21.2999C15.2236 16.7924 17.3931 12.332 19.662 7.92204C20.0004 7.26568 20.3337 6.60627 20.6918 5.96073C20.9841 5.44067 21.3242 4.93002 21.8048 4.56483C22.3244 4.16002 22.9672 3.94575 23.6258 3.95782C24.3026 3.94983 24.9754 4.19917 25.4931 4.63415C26.0044 5.0588 26.3499 5.63972 26.6601 6.21876C27.3613 7.53593 28.0348 8.86838 28.7086 10.1994C30.6314 14.0052 32.4791 17.8485 34.2504 21.7271C34.518 22.3297 34.8045 22.9275 34.9847 23.5634C35.2049 24.3476 35.2122 25.1945 34.9838 25.9771ZM13.5769 34.3179C14.156 34.1868 14.7886 34.5687 14.939 35.1435C15.1258 35.7317 14.7545 36.4156 14.1633 36.5857C13.5856 36.7887 12.8997 36.4358 12.7084 35.8591C12.527 35.3731 12.7211 34.7865 13.1521 34.4991C13.2806 34.4117 13.4249 34.3502 13.5769 34.3179ZM17.4878 38.1148C17.8365 37.7358 18.3279 37.4982 18.8341 37.4225C19.1718 37.3895 19.5126 37.4111 19.8434 37.4864C19.8392 38.0201 19.8425 38.5531 19.8416 39.087C19.3225 38.9529 18.7603 38.9251 18.2509 39.1126C17.9741 39.2134 17.7247 39.3773 17.5224 39.5913C17.4786 39.6287 17.4892 39.6891 17.4852 39.741C17.4883 41.2321 17.4829 42.7234 17.4873 44.2143C17.4822 44.2716 17.496 44.3362 17.4707 44.39C16.8949 44.4034 16.3184 44.3926 15.7425 44.3947C15.7427 42.1216 15.7406 39.848 15.7439 37.5748C16.2289 37.5769 16.7142 37.5729 17.1995 37.5757C17.3062 37.5696 17.4199 37.6244 17.4589 37.7285C17.4972 37.853 17.485 37.9858 17.4878 38.1148ZM29.9024 38.1209C30.3632 37.6441 31.0311 37.4096 31.6865 37.4082C32.3791 37.3908 33.0888 37.5955 33.6238 38.0448C33.9797 38.3239 34.2363 38.7101 34.3559 39.1463C34.5082 39.6776 34.4945 40.2357 34.4926 40.783C34.4931 41.9872 34.4926 43.1915 34.4931 44.3959C33.9124 44.395 33.332 44.3997 32.7513 44.3933C32.7518 43.1899 32.7513 41.9865 32.7518 40.7826C32.7518 40.3354 32.7729 39.8529 32.5351 39.4546C32.3694 39.1688 32.0416 39.0264 31.7255 38.9933C31.1234 38.8969 30.4946 39.1364 30.0796 39.5754C30.0354 39.6195 29.9976 39.6755 30.0025 39.7422C29.9969 39.9283 30.0251 40.1152 30.0091 40.3015C29.9863 40.5546 30.0218 40.8077 30.0135 41.0615C30.0061 41.54 30.0055 42.0186 30.0117 42.4971C29.9788 43.13 30.0361 43.7649 29.9983 44.3971C29.4199 44.3952 28.8421 44.3966 28.2637 44.3964C28.2635 42.1221 28.2595 39.8482 28.2658 37.5741C28.7131 37.5776 29.1612 37.5741 29.6082 37.5755C29.7238 37.5682 29.8502 37.6329 29.8801 37.7504C29.9073 37.8711 29.8991 37.9969 29.9024 38.1209ZM12.9401 44.3962C12.9399 42.1221 12.9366 39.8482 12.9413 37.5743C13.5175 37.5757 14.0935 37.5753 14.6695 37.5748C14.6739 39.8487 14.6706 42.1225 14.6711 44.3959C14.0942 44.3959 13.5172 44.3954 12.9401 44.3962ZM11.8668 37.575C11.4102 37.5741 10.9536 37.5765 10.4966 37.5725C10.3758 37.5718 10.2216 37.5776 10.1626 37.7045C10.1097 37.835 10.13 37.9797 10.1253 38.117C9.74526 37.7125 9.2097 37.4723 8.66027 37.4202C7.81192 37.344 6.93278 37.5793 6.25152 38.0944C5.69034 38.5089 5.27556 39.1084 5.05842 39.7688C4.95385 40.0783 4.90144 40.403 4.86807 40.7276V41.1945C4.91672 42.1719 5.35147 43.1387 6.10981 43.7687C6.6818 44.2533 7.41688 44.524 8.1616 44.5712H8.54982C9.14014 44.5315 9.72294 44.2873 10.1257 43.8474C10.1295 43.9854 10.11 44.1315 10.1617 44.2636C10.2155 44.3705 10.3424 44.3999 10.4526 44.3957C10.9238 44.3945 11.3957 44.3962 11.8673 44.3936C11.8673 42.1214 11.8687 39.8482 11.8668 37.575ZM10.0719 42.271C9.71941 42.6931 9.16881 42.9427 8.61891 42.9253C8.02953 42.9298 7.41782 42.7039 7.03595 42.2417C6.66347 41.8003 6.55091 41.1865 6.63551 40.6256C6.69872 40.1716 6.9302 39.7361 7.29586 39.4543C7.62744 39.1926 8.04551 39.0577 8.46404 39.0285C9.0875 38.974 9.74479 39.2489 10.1199 39.7523C10.141 40.4935 10.1203 41.2366 10.1297 41.9789C10.1236 42.0767 10.1506 42.1944 10.0719 42.271ZM27.2683 39.5262C26.9999 38.8699 26.5238 38.2993 25.9203 37.9271C25.2987 37.5403 24.5533 37.3654 23.8246 37.415C23.2491 37.4528 22.6867 37.6984 22.2872 38.1181C22.2849 36.8442 22.2872 35.571 22.286 34.297C21.7051 34.2973 21.1237 34.2944 20.5428 34.2987C20.5459 37.6634 20.5379 41.0298 20.547 44.3943C21.0281 44.3955 21.5096 44.3966 21.9909 44.3955C22.1105 44.4049 22.2395 44.3391 22.2724 44.218C22.2961 44.0949 22.2874 43.9678 22.2882 43.843C22.6919 44.292 23.285 44.5357 23.8815 44.5717H24.2372C25.2029 44.5233 26.1497 44.0707 26.7557 43.3119C27.6046 42.271 27.7702 40.7581 27.2683 39.5262ZM25.2367 42.3965C24.8475 42.7577 24.3089 42.9309 23.783 42.9258C23.2343 42.9384 22.686 42.6863 22.3384 42.2617C22.2954 42.2175 22.2813 42.1578 22.2849 42.099C22.2853 41.3184 22.286 40.5379 22.2849 39.7577C22.6186 39.3225 23.1527 39.0513 23.6991 39.0233C24.253 39.0071 24.8341 39.1698 25.2407 39.5603C25.628 39.9196 25.8169 40.4585 25.8047 40.9804C25.816 41.5017 25.6219 42.037 25.2367 42.3965ZM41.6016 38.6821C40.8628 37.7412 39.5997 37.2665 38.4221 37.4425C37.9302 37.5201 37.4642 37.756 37.1204 38.1179C37.1167 36.8447 37.1204 35.5714 37.1185 34.2977C36.5386 34.297 35.959 34.2966 35.3795 34.2982C35.3791 37.6632 35.3795 41.0291 35.3795 44.3945C35.8366 44.398 36.2949 44.3938 36.7519 44.398C36.872 44.3999 37.0222 44.3903 37.0838 44.2676C37.1371 44.1351 37.1171 43.9873 37.1209 43.8479C37.5216 44.2869 38.1018 44.5294 38.6888 44.5722H39.0803C40.0354 44.5202 40.969 44.0744 41.5739 43.3271C42.0679 42.7312 42.3344 41.9679 42.3785 41.1992V40.7431C42.3238 40.0009 42.0733 39.264 41.6016 38.6821ZM40.2443 42.2005C39.7844 42.7925 38.9729 43.0127 38.2531 42.8978C37.8148 42.8104 37.3897 42.5737 37.1305 42.2043C37.1016 41.9178 37.1277 41.6281 37.119 41.3402C37.1251 40.8108 37.1058 40.2797 37.1277 39.7511C37.3914 39.3876 37.8134 39.1545 38.2477 39.0581C39.0514 38.9096 39.9858 39.228 40.3921 39.9702C40.762 40.6571 40.7251 41.575 40.2443 42.2005Z" fill="#FF7977"/>
</svg>
