<svg width="48" height="48" viewBox="0 0 48 48" fill="none" xmlns="http://www.w3.org/2000/svg">
<g clip-path="url(#clip0_5_22)">
<path fill-rule="evenodd" clip-rule="evenodd" d="M29.2799 27.5556C26.5588 29.5675 22.6009 30.6395 19.1872 30.6395C14.4048 30.6395 10.1171 28.8749 6.85181 25.9395C6.60444 25.7086 6.81882 25.3952 7.13216 25.5766C10.6448 27.6216 14.982 28.8419 19.4676 28.8419C22.4855 28.8419 25.8167 28.2152 28.8841 26.9124C29.3458 26.731 29.7251 27.2258 29.2799 27.5556Z" fill="#FF9900"/>
<path fill-rule="evenodd" clip-rule="evenodd" d="M30.4178 26.2528C30.0715 25.8075 28.109 26.0384 27.235 26.1538C26.9711 26.1868 26.9216 25.9559 27.169 25.791C28.7357 24.6861 31.2918 25.0159 31.5886 25.3788C31.8855 25.7416 31.5062 28.3142 30.0385 29.5345C29.8076 29.7159 29.5932 29.617 29.6922 29.3696C30.022 28.5451 30.7641 26.7145 30.4178 26.2528Z" fill="#FF9900"/>
<path fill-rule="evenodd" clip-rule="evenodd" d="M27.2844 18.0402V16.9682C27.2844 16.8033 27.3999 16.7044 27.5483 16.7044H32.3307C32.4792 16.7044 32.6111 16.8198 32.6111 16.9682V17.8752C32.6111 18.0237 32.4792 18.2216 32.2483 18.5514L29.7746 22.0805C30.6981 22.064 31.6711 22.1959 32.4957 22.6577C32.6771 22.7566 32.7265 22.9216 32.743 23.07V24.2079C32.743 24.3728 32.5781 24.5542 32.3967 24.4552C30.929 23.6802 28.9665 23.5977 27.3504 24.4717C27.1855 24.5542 27.0041 24.3893 27.0041 24.2244V23.1359C27.0041 22.971 27.0041 22.6742 27.1855 22.4103L30.055 18.304H27.5648C27.4164 18.304 27.2844 18.1886 27.2844 18.0402ZM9.85321 24.6861H8.40198C8.27005 24.6696 8.15461 24.5707 8.13812 24.4387V16.9847C8.13812 16.8363 8.27005 16.7209 8.41847 16.7209H9.77075C9.91917 16.7209 10.0181 16.8363 10.0346 16.9682V17.9412H10.0676C10.4139 17.0012 11.09 16.5559 11.9806 16.5559C12.8876 16.5559 13.4648 17.0012 13.8606 17.9412C14.2069 17.0012 15.015 16.5559 15.8725 16.5559C16.4827 16.5559 17.1423 16.8033 17.5546 17.3805C18.0164 18.0072 17.9174 18.9142 17.9174 19.7223V24.4387C17.9174 24.5872 17.7855 24.7026 17.6371 24.7026H16.2023C16.0539 24.6861 15.9385 24.5707 15.9385 24.4387V20.4809C15.9385 20.1675 15.9715 19.3759 15.9055 19.0791C15.7901 18.5844 15.4767 18.4359 15.0479 18.4359C14.7016 18.4359 14.3223 18.6668 14.1739 19.0461C14.0255 19.4254 14.042 20.0521 14.042 20.4809V24.4387C14.042 24.5872 13.91 24.7026 13.7616 24.7026H12.3104C12.162 24.6861 12.0465 24.5707 12.0465 24.4387V20.4809C12.0465 19.6563 12.1785 18.4195 11.156 18.4195C10.1171 18.4195 10.1501 19.6068 10.1501 20.4809V24.4387C10.1336 24.5707 10.0181 24.6861 9.85321 24.6861ZM36.7339 16.5559C38.8943 16.5559 40.0651 18.403 40.0651 20.7612C40.0651 23.037 38.7788 24.851 36.7339 24.851C34.623 24.851 33.4686 23.004 33.4686 20.6952C33.4522 18.37 34.623 16.5559 36.7339 16.5559ZM36.7339 18.0896C35.662 18.0896 35.596 19.5574 35.596 20.4644C35.596 21.3714 35.5795 23.3173 36.7174 23.3173C37.8388 23.3173 37.9048 21.7507 37.9048 20.7942C37.9048 20.1675 37.8718 19.4089 37.6904 18.8152C37.5255 18.2875 37.1957 18.0896 36.7339 18.0896ZM42.8522 24.6861H41.4009C41.2525 24.6696 41.1371 24.5542 41.1371 24.4223V16.9517C41.1536 16.8198 41.269 16.7044 41.4174 16.7044H42.7697C42.9016 16.7044 43.0006 16.8033 43.0336 16.9188V18.0566H43.0665C43.4788 17.0342 44.0395 16.5559 45.0455 16.5559C45.6886 16.5559 46.3318 16.7868 46.7441 17.43C47.1234 18.0237 47.1234 19.0296 47.1234 19.7552V24.4552C47.1069 24.5872 46.9915 24.6861 46.843 24.6861H45.3918C45.2599 24.6696 45.1444 24.5707 45.1279 24.4552V20.3984C45.1279 19.5738 45.2269 18.3865 44.2209 18.3865C43.8746 18.3865 43.5448 18.6174 43.3799 18.9802C43.182 19.4419 43.149 19.8872 43.149 20.3984V24.4223C43.1325 24.5707 43.0006 24.6861 42.8522 24.6861ZM23.475 21.124C23.475 21.6847 23.4915 22.163 23.2111 22.6742C22.9802 23.0865 22.6174 23.3338 22.2051 23.3338C21.6444 23.3338 21.3146 22.9051 21.3146 22.2784C21.3146 21.0416 22.4195 20.8107 23.475 20.8107V21.124ZM24.9427 24.6696C24.8437 24.7521 24.7118 24.7686 24.5964 24.7026C24.1181 24.3068 24.0192 24.1089 23.7553 23.7296C22.9637 24.5377 22.3865 24.7851 21.3641 24.7851C20.1437 24.7851 19.1872 24.0265 19.1872 22.5258C19.1872 21.3384 19.8304 20.5468 20.7374 20.151C21.529 19.8047 22.6339 19.7388 23.475 19.6398V19.4584C23.475 19.1121 23.5079 18.6998 23.2936 18.403C23.1122 18.1391 22.7823 18.0237 22.4855 18.0237C21.9248 18.0237 21.43 18.304 21.3146 18.8977C21.2816 19.0296 21.1992 19.1616 21.0672 19.1616L19.6655 19.0131C19.55 18.9802 19.4181 18.8977 19.4511 18.7163C19.7809 17.0012 21.3146 16.49 22.6999 16.49C23.409 16.49 24.3325 16.6714 24.8932 17.2156C25.6023 17.8752 25.5364 18.7658 25.5364 19.7223V21.9816C25.5364 22.6577 25.8167 22.9545 26.0806 23.3338C26.1795 23.4658 26.196 23.6307 26.0806 23.7131C25.7672 23.9605 25.2395 24.4223 24.9427 24.6696ZM4.42759 21.124C4.42759 21.6847 4.44408 22.163 4.16373 22.6742C3.93286 23.0865 3.57005 23.3338 3.15777 23.3338C2.59707 23.3338 2.26724 22.9051 2.26724 22.2784C2.26724 21.0416 3.37216 20.8107 4.42759 20.8107V21.124ZM5.87882 24.6696C5.77987 24.7521 5.64794 24.7686 5.53251 24.7026C5.05426 24.3068 4.95531 24.1089 4.69145 23.7296C3.89987 24.5377 3.32268 24.7851 2.30022 24.7851C1.07987 24.7851 0.123383 24.0265 0.123383 22.5258C0.123383 21.3384 0.766539 20.5468 1.67356 20.151C2.46514 19.8047 3.57005 19.7388 4.4111 19.6398V19.4584C4.4111 19.1121 4.44408 18.6998 4.2297 18.403C4.04829 18.1391 3.71847 18.0237 3.42163 18.0237C2.86093 18.0237 2.36619 18.304 2.25075 18.8977C2.21777 19.0296 2.13531 19.1616 2.00338 19.1616L0.601627 19.0131C0.486189 18.9802 0.354261 18.8977 0.387243 18.7163C0.717068 17.0012 2.25075 16.49 3.63601 16.49C4.34514 16.49 5.26865 16.6714 5.82935 17.2156C6.53847 17.8752 6.47251 18.7658 6.47251 19.7223V21.9816C6.47251 22.6577 6.75286 22.9545 7.01672 23.3338C7.11566 23.4658 7.13215 23.6307 7.01672 23.7131C6.70338 23.9605 6.17566 24.4223 5.87882 24.6696Z" fill="black"/>
</g>
<defs>
<clipPath id="clip0_5_22">
<rect width="47" height="47" fill="white" transform="translate(0.123383 0.0647163)"/>
</clipPath>
</defs>
</svg>
