<svg xmlns="http://www.w3.org/2000/svg" viewBox="-0.5 -0.5 24 24" height="24" width="24"><defs></defs><path d="M22.520833333333336 11.020833333333334v-9.583333333333334a0.9583333333333334 0.9583333333333334 0 0 0 -0.9583333333333334 -0.9583333333333334h-20.125a0.9583333333333334 0.9583333333333334 0 0 0 -0.9583333333333334 0.9583333333333334v9.583333333333334Z" fill="#9feaff" stroke-width="1"></path><path d="M17.25 0.4791666666666667H1.4375a0.9583333333333334 0.9583333333333334 0 0 0 -0.9583333333333334 0.9583333333333334v9.583333333333334H6.708333333333334Z" fill="#dff9ff" stroke-width="1"></path><path d="M0.4791666666666667 11.020833333333334v1.9166666666666667a0.9583333333333334 0.9583333333333334 0 0 0 0.9583333333333334 0.9583333333333334h20.125a0.9583333333333334 0.9583333333333334 0 0 0 0.9583333333333334 -0.9583333333333334v-1.9166666666666667Z" fill="#ffffff" stroke-width="1"></path><path d="M1.4375 0.4791666666666667h20.125s0.9583333333333334 0 0.9583333333333334 0.9583333333333334v11.5s0 0.9583333333333334 -0.9583333333333334 0.9583333333333334h-20.125s-0.9583333333333334 0 -0.9583333333333334 -0.9583333333333334v-11.5s0 -0.9583333333333334 0.9583333333333334 -0.9583333333333334" stroke="#00303e" stroke-linecap="round" stroke-linejoin="round" fill="none" stroke-width="1"></path><path d="M20.936708333333335 21.925708333333336a0.4791666666666667 0.4791666666666667 0 0 1 -0.46479166666666666 0.595125H2.5328749999999998a0.4791666666666667 0.4791666666666667 0 0 1 -0.46479166666666666 -0.595125l1.1979166666666667 -4.791666666666667a0.4791666666666667 0.4791666666666667 0 0 1 0.46479166666666666 -0.36320833333333336h15.543208333333336a0.4791666666666667 0.4791666666666667 0 0 1 0.46479166666666666 0.36320833333333336Z" fill="#dff9ff" stroke="#00303e" stroke-linecap="round" stroke-linejoin="round" stroke-width="1"></path><path d="m0.4791666666666667 11.020833333333334 22.041666666666668 0" stroke="#00303e" stroke-linecap="round" stroke-linejoin="round" fill="none" stroke-width="1"></path><path d="m5.270833333333334 18.6875 0.9583333333333334 0" stroke="#00303e" stroke-linecap="round" stroke-linejoin="round" fill="none" stroke-width="1"></path><path d="m4.3125 20.604166666666668 0.9583333333333334 0" stroke="#00303e" stroke-linecap="round" stroke-linejoin="round" fill="none" stroke-width="1"></path><path d="m8.145833333333334 18.6875 0.9583333333333334 0" stroke="#00303e" stroke-linecap="round" stroke-linejoin="round" fill="none" stroke-width="1"></path><path d="m11.020833333333334 18.6875 0.9583333333333334 0" stroke="#00303e" stroke-linecap="round" stroke-linejoin="round" fill="none" stroke-width="1"></path><path d="m13.895833333333334 18.6875 0.9583333333333334 0" stroke="#00303e" stroke-linecap="round" stroke-linejoin="round" fill="none" stroke-width="1"></path><path d="m16.770833333333336 18.6875 0.9583333333333334 0" stroke="#00303e" stroke-linecap="round" stroke-linejoin="round" fill="none" stroke-width="1"></path><path d="m7.1875 20.604166666666668 8.625 0" stroke="#00303e" stroke-linecap="round" stroke-linejoin="round" fill="none" stroke-width="1"></path><path d="m17.729166666666668 20.604166666666668 0.9583333333333334 0" stroke="#00303e" stroke-linecap="round" stroke-linejoin="round" fill="none" stroke-width="1"></path></svg>