<svg width="48" height="47" viewBox="0 0 48 47" fill="none" xmlns="http://www.w3.org/2000/svg">
<g clip-path="url(#clip0_5_159)">
<path d="M0.123413 14.099V15.3853H9.27187V14.099H0.123413ZM10.568 14.099V15.3853H23.605C23.605 15.3853 22.2734 14.099 20.5097 14.099H10.568ZM26.1625 14.099V15.3853H34.0497L33.5815 14.099H26.1625ZM39.7044 14.099L39.2362 15.3853H47.0518V14.099H39.7044ZM0.123413 16.6005V17.8867H9.27187V16.6005H0.123413ZM10.568 16.6023V17.8868H25.1178C25.1178 17.8868 24.9479 16.8968 24.6515 16.6023H10.568ZM26.1625 16.6023V17.8868H34.9144L34.4811 16.6023H26.1625ZM38.768 16.6023L38.3347 17.8868H47.0518V16.6023H38.768ZM2.75245 19.1019V20.39H6.71441V19.1019H2.75245ZM13.1971 19.1019V20.39H17.1591V19.1019H13.1971ZM21.0127 19.1019V20.39H24.9747C24.9747 20.39 25.2262 19.7098 25.2262 19.1019H21.0127ZM28.7916 19.1019V20.39H35.8159L35.3477 19.1019H28.7916ZM37.9052 19.1019L37.4352 20.39H44.4943V19.1019H37.9052ZM2.75245 21.6052V22.8915H6.71441V21.6052H2.75245ZM13.1971 21.6052V22.8915H23.3168C23.3168 22.8915 24.1633 22.2315 24.433 21.6052H13.1971ZM28.7916 21.6052V22.8915H32.7535V22.1755L33.0051 22.8915H40.2625L40.5324 22.1755V22.8915H44.4944V21.6052H37.057L36.6622 22.6947L36.2657 21.6052H28.7916ZM2.75245 24.1067V25.3929H6.71441V24.1067H2.75245ZM13.1971 24.1067V25.3929H24.433C24.1633 24.7687 23.3168 24.1067 23.3168 24.1067H13.1971ZM28.7916 24.1067V25.3929H32.7535V24.1067H28.7916ZM33.4732 24.1067L33.9524 25.3929H39.3941L39.8494 24.1067H33.4732ZM40.5324 24.1067V25.3929H44.4943V24.1067H40.5324ZM2.75245 26.6081V27.8943H6.71441V26.6081H2.75245ZM13.1971 26.6081V27.8943H17.1591V26.6081H13.1971ZM21.0127 26.6081V27.8943H25.2262C25.2262 27.2873 24.9746 26.6081 24.9746 26.6081H21.0127ZM28.7916 26.6081V27.8943H32.7535V26.6081H28.7916ZM34.3728 26.6081L34.8373 27.8943H38.4853L38.9535 26.6081H34.3728ZM40.5324 26.6081V27.8943H44.4943V26.6081H40.5324ZM0.194994 29.1095V30.3976H9.34345V29.1095H0.194994ZM10.568 29.1095V30.3976H24.6515C24.9479 30.1027 25.1178 29.1095 25.1178 29.1095H10.568ZM26.2341 29.1095V30.3976H32.7535V29.1095H26.2341ZM35.2742 29.1095L35.7516 30.3976H37.6077L38.0557 29.1095H35.2742ZM40.5324 29.1095V30.3976H47.1234V29.1095H40.5324ZM0.194994 31.6128V32.899H9.34345V31.6128H0.194994ZM10.568 31.6128V32.8972H20.5097C22.2734 32.8972 23.605 31.6128 23.605 31.6128H10.568ZM26.2341 31.6128V32.899H32.7535V31.6128H26.2341ZM36.1794 31.6128L36.6384 32.8954L36.7173 32.8972L37.1837 31.6128H36.1794ZM40.5324 31.6128V32.899H47.1234V31.6128H40.5324Z" fill="#1F70C1"/>
</g>
<defs>
<clipPath id="clip0_5_159">
<rect width="47" height="47" fill="white" transform="translate(0.123413 -0.000961304)"/>
</clipPath>
</defs>
</svg>
