<svg width="131" height="131" viewBox="0 0 131 131" fill="none" xmlns="http://www.w3.org/2000/svg">
<g clip-path="url(#clip0_5_195)">
<path d="M130.05 64.6544V62.3682H127.211V58.8139L127.115 58.8433L124.449 59.6592L124.396 59.6752V62.3683H120.187V60.868C120.187 60.1694 120.343 59.6349 120.651 59.2783C120.957 58.9261 121.394 58.747 121.952 58.747C122.353 58.747 122.768 58.8415 123.186 59.0277L123.29 59.0745V56.6668L123.241 56.6486C122.851 56.5086 122.321 56.438 121.664 56.438C120.836 56.438 120.084 56.6182 119.427 56.9754C118.771 57.333 118.254 57.8436 117.893 58.4927C117.532 59.1411 117.349 59.89 117.349 60.7187V62.3682H115.372V64.6544H117.349V74.286H120.187V64.6544H124.396V70.7751C124.396 73.2959 125.585 74.5733 127.93 74.5733C128.315 74.5733 128.721 74.5282 129.135 74.4398C129.556 74.349 129.844 74.2583 130.013 74.1615L130.05 74.1393V71.8319L129.934 71.9083C129.78 72.0109 129.589 72.0948 129.364 72.1572C129.138 72.2207 128.949 72.2525 128.803 72.2525C128.254 72.2525 127.847 72.1045 127.595 71.8123C127.34 71.5176 127.211 71.0021 127.211 70.281V64.6544H130.05ZM109.035 72.2529C108.004 72.2529 107.192 71.9113 106.62 71.2385C106.044 70.5623 105.752 69.5983 105.752 68.3734C105.752 67.1097 106.044 66.1206 106.62 65.4325C107.193 64.7489 107.997 64.4019 109.011 64.4019C109.995 64.4019 110.779 64.7333 111.34 65.3873C111.904 66.0448 112.19 67.0259 112.19 68.3044C112.19 69.5985 111.921 70.5926 111.39 71.2576C110.863 71.9176 110.071 72.2529 109.035 72.2529ZM109.161 62.0811C107.196 62.0811 105.635 62.6569 104.522 63.7926C103.409 64.9284 102.846 66.5003 102.846 68.4648C102.846 70.3308 103.396 71.8317 104.482 72.9251C105.568 74.019 107.045 74.5731 108.873 74.5731C110.778 74.5731 112.308 73.9892 113.421 72.8377C114.533 71.6876 115.096 70.1306 115.096 68.2119C115.096 66.3168 114.568 64.8047 113.524 63.7185C112.48 62.6319 111.012 62.0811 109.161 62.0811ZM98.27 62.0811C96.9332 62.0811 95.8274 62.423 94.9827 63.0972C94.1328 63.7754 93.7017 64.6649 93.7017 65.7412C93.7017 66.3007 93.7948 66.7977 93.9779 67.2192C94.1621 67.6421 94.4472 68.0145 94.826 68.327C95.2019 68.637 95.7821 68.9617 96.551 69.2921C97.1974 69.558 97.6794 69.783 97.9856 69.9603C98.2849 70.1341 98.4973 70.3088 98.6173 70.4789C98.7339 70.6454 98.793 70.8733 98.793 71.1545C98.793 71.9552 98.1934 72.3448 96.9596 72.3448C96.5019 72.3448 95.9799 72.2492 95.4081 72.0608C94.8404 71.8753 94.3045 71.6036 93.8193 71.2552L93.7015 71.1707V73.903L93.7447 73.9231C94.1463 74.1085 94.6526 74.2648 95.2493 74.3878C95.8449 74.5109 96.386 74.5736 96.8561 74.5736C98.3067 74.5736 99.4748 74.23 100.327 73.5518C101.185 72.8689 101.62 71.9585 101.62 70.8449C101.62 70.0416 101.386 69.3527 100.924 68.7971C100.466 68.246 99.6711 67.7401 98.5621 67.2929C97.6785 66.9383 97.1125 66.6439 96.879 66.4179C96.6539 66.1996 96.5395 65.8908 96.5395 65.4999C96.5395 65.1533 96.6806 64.8756 96.9703 64.6508C97.2621 64.4248 97.6685 64.3098 98.178 64.3098C98.6509 64.3098 99.1346 64.3845 99.6158 64.5309C100.097 64.6773 100.519 64.8734 100.871 65.1132L100.987 65.1924V62.6006L100.943 62.5814C100.618 62.442 100.189 62.3226 99.6679 62.2258C99.1494 62.1296 98.679 62.0811 98.27 62.0811ZM86.3034 72.2529C85.2736 72.2529 84.4612 71.9113 83.889 71.2385C83.313 70.5623 83.0218 69.5985 83.0218 68.3734C83.0218 67.1097 83.3134 66.1206 83.8896 65.4325C84.4618 64.7489 85.266 64.4019 86.2806 64.4019C87.2643 64.4019 88.0476 64.7333 88.6089 65.3873C89.1729 66.0448 89.459 67.0259 89.459 68.3044C89.459 69.5985 89.1897 70.5926 88.659 71.2576C88.132 71.9176 87.3399 72.2529 86.3034 72.2529ZM86.4299 62.0811C84.4642 62.0811 82.9032 62.6569 81.7909 63.7926C80.6787 64.9284 80.1144 66.5003 80.1144 68.4648C80.1144 70.3316 80.6652 71.8317 81.751 72.9251C82.8368 74.019 84.3143 74.5731 86.1424 74.5731C88.0471 74.5731 89.5773 73.9892 90.6897 72.8377C91.8018 71.6876 92.3656 70.1306 92.3656 68.2119C92.3656 66.3168 91.8366 64.8047 90.793 63.7185C89.7488 62.6319 88.2808 62.0811 86.4299 62.0811ZM75.8065 64.4321V62.3682H73.0031V74.2857H75.8065V68.1894C75.8065 67.1528 76.0415 66.3012 76.5053 65.6579C76.9632 65.0224 77.5734 64.7003 78.3183 64.7003C78.5709 64.7003 78.8543 64.7419 79.1613 64.8243C79.4651 64.9062 79.6852 64.9951 79.815 65.0886L79.9328 65.174V62.3478L79.8874 62.3283C79.6263 62.2174 79.257 62.1614 78.7897 62.1614C78.0852 62.1614 77.4548 62.3878 76.9148 62.8335C76.4408 63.2252 76.0982 63.7623 75.8363 64.4321H75.8065ZM67.9828 62.0811C66.6967 62.0811 65.5496 62.3568 64.5738 62.9005C63.5961 63.4454 62.8399 64.2233 62.3254 65.2125C61.8132 66.1993 61.5532 67.352 61.5532 68.6375C61.5532 69.7635 61.8053 70.7968 62.3037 71.7076C62.8023 72.6198 63.508 73.3335 64.4014 73.8285C65.2935 74.3228 66.3246 74.5734 67.4662 74.5734C68.7985 74.5734 69.9359 74.3071 70.8479 73.7818L70.8848 73.7607V71.1924L70.7669 71.2784C70.3538 71.5793 69.8922 71.8195 69.3954 71.9925C68.9 72.1655 68.4482 72.2529 68.0521 72.2529C66.9521 72.2529 66.0691 71.9087 65.4281 71.2301C64.7857 70.5506 64.46 69.5965 64.46 68.3959C64.46 67.1878 64.7997 66.2091 65.4691 65.487C66.1365 64.7671 67.0212 64.4019 68.0984 64.4019C69.0198 64.4019 69.9177 64.7139 70.7672 65.3301L70.8848 65.4155V62.7093L70.8468 62.688C70.5271 62.509 70.0911 62.3612 69.5499 62.2492C69.0109 62.1374 68.4837 62.0811 67.9828 62.0811ZM59.6224 62.3683H56.8191V74.2857H59.6224V62.3683ZM58.2494 57.2914C57.788 57.2914 57.3856 57.4485 57.055 57.7597C56.723 58.0718 56.5546 58.4648 56.5546 58.9286C56.5546 59.3851 56.721 59.7709 57.0498 60.0747C57.3765 60.3777 57.7802 60.5312 58.2495 60.5312C58.7187 60.5312 59.1239 60.3777 59.4545 60.0753C59.7873 59.7709 59.9561 59.3852 59.9561 58.9286C59.9561 58.481 59.7918 58.0921 59.4682 57.7723C59.1449 57.4531 58.7347 57.2914 58.2494 57.2914ZM51.2549 61.489V74.2857H54.1158V57.6562H50.1561L45.1231 70.0081L40.2389 57.6562H36.118V74.2856H38.8065V61.4877H38.8988L44.0564 74.2857H46.0854L51.1625 61.489H51.2549Z" fill="#706D6E"/>
<path d="M13.2376 65.287H0.0498047V52.0992H13.2376V65.287Z" fill="#F1511B"/>
<path d="M27.7984 65.287H14.6109V52.0992H27.7984V65.287Z" fill="#80CC28"/>
<path d="M13.2372 79.8529H0.0498047V66.6653H13.2372V79.8529Z" fill="#00ADEF"/>
<path d="M27.7984 79.8529H14.6109V66.6653H27.7984V79.8529Z" fill="#FBBC09"/>
</g>
<defs>
<clipPath id="clip0_5_195">
<rect width="130" height="130" fill="white" transform="translate(0.0498047 0.975479)"/>
</clipPath>
</defs>
</svg>
