<svg xmlns="http://www.w3.org/2000/svg" viewBox="-0.5 -0.5 24 24" height="24" width="24"><defs></defs><path d="M17.489583333333336 4.552083333333334a2.15625 2.15625 0 1 0 4.3125 0 2.15625 2.15625 0 1 0 -4.3125 0" fill="#dff9ff" stroke-width="1"></path><path d="M19.645833333333336 7.666666666666667a2.875 2.875 0 0 0 -2.875 2.875v2.3958333333333335H18.208333333333336l0.4791666666666667 4.3125h1.9166666666666667l0.4791666666666667 -4.3125h1.4375V10.541666666666668a2.875 2.875 0 0 0 -2.875 -2.875Z" fill="#dff9ff" stroke-width="1"></path><path d="M1.1979166666666667 4.552083333333334a2.15625 2.15625 0 1 0 4.3125 0 2.15625 2.15625 0 1 0 -4.3125 0" fill="#dff9ff" stroke-width="1"></path><path d="M3.354166666666667 7.666666666666667a2.875 2.875 0 0 0 -2.875 2.875v2.3958333333333335H1.9166666666666667l0.4791666666666667 4.3125h1.9166666666666667l0.4791666666666667 -4.3125h1.4375V10.541666666666668a2.875 2.875 0 0 0 -2.875 -2.875Z" fill="#dff9ff" stroke-width="1"></path><path d="M8.864583333333334 3.1145833333333335a2.635416666666667 2.635416666666667 0 1 0 5.270833333333334 0 2.635416666666667 2.635416666666667 0 1 0 -5.270833333333334 0" fill="#dff9ff" stroke-width="1"></path><path d="M14.854166666666668 10.0625a3.354166666666667 3.354166666666667 0 0 0 -6.708333333333334 0v2.875h1.5170416666666666l0.399625 4.791666666666667h2.875l0.399625 -4.791666666666667H14.854166666666668Z" fill="#dff9ff" stroke-width="1"></path><path d="M19.645833333333336 4.538666666666667a2.1457083333333333 2.1457083333333333 0 0 1 1.860125 1.0848333333333333 2.1313333333333335 2.1313333333333335 0 0 0 0.296125 -1.071416666666667 2.15625 2.15625 0 0 0 -4.3125 0 2.1313333333333335 2.1313333333333335 0 0 0 0.296125 1.071416666666667A2.1457083333333333 2.1457083333333333 0 0 1 19.645833333333336 4.538666666666667Z" fill="#ffffff" stroke-width="1"></path><path d="M19.645833333333336 7.666666666666667a2.875 2.875 0 0 0 -2.875 2.875v2.142833333333334a2.875 2.875 0 0 1 5.75 0V10.541666666666668a2.875 2.875 0 0 0 -2.875 -2.875Z" fill="#ffffff" stroke-width="1"></path><path d="M3.354166666666667 4.538666666666667a2.1457083333333333 2.1457083333333333 0 0 1 1.860125 1.0848333333333333A2.1313333333333335 2.1313333333333335 0 0 0 5.510416666666667 4.552083333333334a2.15625 2.15625 0 0 0 -4.3125 0 2.1313333333333335 2.1313333333333335 0 0 0 0.296125 1.071416666666667A2.1457083333333333 2.1457083333333333 0 0 1 3.354166666666667 4.538666666666667Z" fill="#ffffff" stroke-width="1"></path><path d="M3.354166666666667 7.666666666666667a2.875 2.875 0 0 0 -2.875 2.875v2.142833333333334a2.875 2.875 0 0 1 5.75 0V10.541666666666668a2.875 2.875 0 0 0 -2.875 -2.875Z" fill="#ffffff" stroke-width="1"></path><path d="M11.5 2.6220000000000003a2.6335 2.6335 0 0 1 2.4035 1.564 2.635416666666667 2.635416666666667 0 1 0 -4.807 0A2.6335 2.6335 0 0 1 11.5 2.6220000000000003Z" fill="#ffffff" stroke-width="1"></path><path d="M11.5 6.708333333333334a3.354166666666667 3.354166666666667 0 0 0 -3.354166666666667 3.354166666666667v2.142833333333334a3.354166666666667 3.354166666666667 0 0 1 6.708333333333334 0V10.0625A3.354166666666667 3.354166666666667 0 0 0 11.5 6.708333333333334Z" fill="#ffffff" stroke-width="1"></path><path d="M0.4791666666666667 20.60129166666667a11.020833333333334 1.919541666666667 0 1 0 22.041666666666668 0 11.020833333333334 1.919541666666667 0 1 0 -22.041666666666668 0" fill="#9feaff" stroke-width="1"></path><path d="M16.291666666666668 18.879166666666666c3.687666666666667 0.31145833333333334 6.229166666666667 0.9679166666666668 6.229166666666667 1.725 0 1.0541666666666667 -4.9334999999999996 1.9166666666666667 -11.020833333333334 1.9166666666666667S0.4791666666666667 21.658333333333335 0.4791666666666667 20.604166666666668c0 -0.7570833333333334 2.525208333333333 -1.4116250000000001 6.1889166666666675 -1.725" fill="none" stroke="#00303e" stroke-linecap="round" stroke-linejoin="round" stroke-width="1"></path><path d="M17.489583333333336 4.552083333333334a2.15625 2.15625 0 1 0 4.3125 0 2.15625 2.15625 0 1 0 -4.3125 0" fill="none" stroke="#00303e" stroke-linecap="round" stroke-linejoin="round" stroke-width="1"></path><path d="M19.645833333333336 7.666666666666667a2.875 2.875 0 0 0 -2.875 2.875v2.3958333333333335H18.208333333333336l0.4791666666666667 4.3125h1.9166666666666667l0.4791666666666667 -4.3125h1.4375V10.541666666666668a2.875 2.875 0 0 0 -2.875 -2.875Z" fill="none" stroke="#00303e" stroke-linecap="round" stroke-linejoin="round" stroke-width="1"></path><path d="M1.1979166666666667 4.552083333333334a2.15625 2.15625 0 1 0 4.3125 0 2.15625 2.15625 0 1 0 -4.3125 0" fill="none" stroke="#00303e" stroke-linecap="round" stroke-linejoin="round" stroke-width="1"></path><path d="M3.354166666666667 7.666666666666667a2.875 2.875 0 0 0 -2.875 2.875v2.3958333333333335H1.9166666666666667l0.4791666666666667 4.3125h1.9166666666666667l0.4791666666666667 -4.3125h1.4375V10.541666666666668a2.875 2.875 0 0 0 -2.875 -2.875Z" fill="none" stroke="#00303e" stroke-linecap="round" stroke-linejoin="round" stroke-width="1"></path><path d="M8.864583333333334 3.1145833333333335a2.635416666666667 2.635416666666667 0 1 0 5.270833333333334 0 2.635416666666667 2.635416666666667 0 1 0 -5.270833333333334 0" fill="none" stroke="#00303e" stroke-linecap="round" stroke-linejoin="round" stroke-width="1"></path><path d="M14.854166666666668 10.0625a3.354166666666667 3.354166666666667 0 0 0 -6.708333333333334 0v2.875h1.5170416666666666l0.399625 4.791666666666667h2.875l0.399625 -4.791666666666667H14.854166666666668Z" fill="none" stroke="#00303e" stroke-linecap="round" stroke-linejoin="round" stroke-width="1"></path></svg>