<svg width="48" height="47" viewBox="0 0 48 47" fill="none" xmlns="http://www.w3.org/2000/svg">
<path fill-rule="evenodd" clip-rule="evenodd" d="M2.19696 17.204H10.9837V29.794H2.19696V17.204ZM3.46342 28.5266H9.71282V18.472H3.46342V28.5266Z" fill="#F7D730"/>
<path fill-rule="evenodd" clip-rule="evenodd" d="M16.8203 22.8526H16.2768C15.5628 21.8442 14.8547 20.842 14.1476 19.7094H14.1425V22.8526H13.5417V18.47H14.0857C14.7996 19.4714 15.5068 20.4665 16.2073 21.5933H16.2197V18.47H16.8205L16.8203 22.8526ZM18.2484 21.118C18.4227 20.5418 18.5983 20.0098 18.7551 19.3334H18.7678C18.9428 20.0098 19.0996 20.5421 19.2622 21.118H18.2484ZM18.5356 18.47L17.0214 22.8526H17.6725L18.0533 21.6564H19.3751L19.7192 22.8526H20.5587L19.162 18.47H18.5356ZM21.2656 22.8526V19.0579H20.1132V18.47H23.1682V19.0579H22.0168V22.8526H21.2656ZM23.4118 18.47H24.1579V22.8526H23.4118V18.47ZM26.4743 22.3008C25.6909 22.3008 25.4156 21.437 25.4156 20.5979C25.4156 19.7906 25.7284 19.0203 26.4743 19.0203C27.2192 19.0203 27.5311 19.7906 27.5311 20.5979C27.5311 21.437 27.2563 22.3008 26.4743 22.3008ZM26.4743 22.9268C27.6196 22.9268 28.333 21.9068 28.333 20.5977C28.333 19.371 27.5455 18.3944 26.4743 18.3944C25.4041 18.3944 24.6131 19.371 24.6131 20.5977C24.6134 21.9071 25.328 22.9268 26.4743 22.9268ZM32.0705 22.8526H31.5262C30.8118 21.8442 30.1042 20.842 29.3976 19.7094H29.3915V22.8526H28.7914V18.47H29.3357C30.0486 19.4714 30.7562 20.4665 31.4563 21.5933H31.4692V18.47H32.0707V22.8526H32.0705ZM33.4979 21.118C33.6737 20.5418 33.848 20.0098 34.0055 19.3334H34.018C34.1933 20.0098 34.3493 20.5421 34.5117 21.118H33.4979ZM33.7866 18.47L32.2716 22.8526H32.9232L33.304 21.6564H34.6256L34.9699 22.8526H35.8084L34.412 18.47H33.7866ZM36.0266 18.47H36.773V22.2638H38.256V22.8526H36.0266V18.47ZM16.3585 26.5184V28.3271C15.9574 28.4844 15.5377 28.5963 15.1132 28.5963C13.8231 28.5963 13.0094 27.5947 13.0094 26.3048C13.0094 25.1086 13.8231 24.0635 15.1378 24.0635C15.5441 24.0635 15.9513 24.2144 16.2019 24.4019L15.9576 24.9216C15.7577 24.7974 15.4438 24.6909 15.1564 24.6909C14.3556 24.6909 13.8104 25.3234 13.8104 26.319C13.8104 27.3574 14.4368 27.9704 15.0818 27.9704C15.2812 27.9704 15.4512 27.9465 15.6084 27.8644V26.5184H16.3585ZM19.0455 24.7284H17.7919V25.9298H19.0189V26.5184H17.7919V27.9324H19.2693V28.5217H17.0402V24.1389H19.0455V24.7284ZM21.3616 27.9702C20.5782 27.9702 20.3024 27.107 20.3024 26.2675C20.3024 25.4607 20.6155 24.6906 21.3616 24.6906C22.1061 24.6906 22.4184 25.4607 22.4184 26.2675C22.4184 27.107 22.1424 27.9702 21.3616 27.9702ZM21.3616 28.5963C22.5067 28.5963 23.2199 27.5759 23.2199 26.2673C23.2199 25.0405 22.4316 24.0633 21.3616 24.0633C20.2898 24.0633 19.5019 25.0405 19.5019 26.2673C19.5017 27.5761 20.2142 28.5963 21.3616 28.5963ZM26.8254 26.5184V28.3271C26.4243 28.4844 26.0059 28.5963 25.5797 28.5963C24.2905 28.5963 23.4761 27.5947 23.4761 26.3048C23.4761 25.1086 24.2905 24.0635 25.6053 24.0635C26.0125 24.0635 26.4187 24.2144 26.6686 24.4019L26.4243 24.9216C26.2239 24.7974 25.9128 24.6909 25.6243 24.6909C24.8219 24.6909 24.2771 25.3234 24.2771 26.319C24.2771 27.3574 24.9038 27.9704 25.5487 27.9704C25.7496 27.9704 25.9179 27.9465 26.0749 27.8644V26.5184H26.8254ZM28.2669 24.7284H28.5978C29.0411 24.7284 29.2923 24.984 29.2923 25.4353C29.2923 26.0232 28.936 26.2858 28.5788 26.3046C28.5035 26.3121 28.3279 26.3185 28.2669 26.3238V24.7284ZM30.1696 28.5217L29.2852 26.7069C29.7672 26.4509 30.0442 25.9298 30.0442 25.4039C30.0442 24.5517 29.5237 24.1389 28.6846 24.1389H27.514V28.5217H28.2669V26.869H28.6047L29.3108 28.5217H30.1696ZM31.4087 26.7874C31.5835 26.2104 31.7589 25.6789 31.9159 25.0027H31.9283C32.1036 25.6789 32.2597 26.2104 32.4226 26.7874H31.4087ZM31.6962 24.1389L30.1808 28.5217H30.8318L31.2141 27.3255H32.5357L32.878 28.5217H33.7185L32.3216 24.1389H31.6962ZM35.1267 24.1389H33.956V28.5217H34.7075V26.869H35.0447C35.9406 26.869 36.4858 26.1427 36.4858 25.4039C36.4858 24.5514 35.9657 24.1389 35.1267 24.1389ZM35.0213 26.3048C34.9433 26.3119 34.7599 26.3177 34.7075 26.3229V24.7284H35.0447C35.4829 24.7284 35.7343 24.984 35.7343 25.4353C35.7343 26.0232 35.3785 26.286 35.0213 26.3048ZM39.966 28.5217H39.215V26.4126H37.655V28.5217H36.912V24.1389H37.655V25.823H39.215V24.1513H39.966V28.5217ZM40.6853 24.1389H41.4319V28.5217H40.6853V24.1389ZM44.8112 24.9345C44.6293 24.8216 44.3301 24.6906 44.0407 24.6906C43.2758 24.6906 42.7206 25.3231 42.7206 26.3187C42.7206 27.3572 43.3335 27.9702 44.0602 27.9702C44.3261 27.9689 44.5864 27.8929 44.8112 27.7507L45.0184 28.2959C44.7917 28.4522 44.3923 28.5963 44.0297 28.5963C42.7396 28.5963 41.9252 27.5947 41.9252 26.3048C41.9252 25.1086 42.7325 24.0635 44.0407 24.0635C44.4298 24.0635 44.7917 24.2274 45.0499 24.4019L44.8112 24.9345Z" fill="black"/>
</svg>
