<svg width="130" height="131" viewBox="0 0 130 131" fill="none" xmlns="http://www.w3.org/2000/svg">
<g clip-path="url(#clip0_5_215)">
<path d="M110.972 80.7763C112.783 80.9518 114.592 81.1403 116.398 81.3353L120.383 71.4934L124.172 82.2431C126.116 82.4866 128.059 82.7423 129.996 83.0092L123.354 64.1588L129.998 47.7511H124.371L124.313 47.8317L120.723 56.6955L117.572 47.7524H112.016L117.752 64.0305L110.973 80.7763H110.972ZM106.77 80.3906V47.7511H101.216V79.9326C103.069 80.0756 104.922 80.2294 106.77 80.3906ZM65.049 78.5654C66.5483 78.5654 68.0459 78.5767 69.5409 78.5888V66.5976H76.2129V61.4912H69.5413V52.8635H77.2256V47.7511H63.9656V78.5697C64.3257 78.5697 64.6876 78.5641 65.049 78.5654ZM47.8049 78.8774C49.6552 78.8115 51.5073 78.7561 53.362 78.711V52.8644H58.5533V47.7524H42.6136V52.8644H47.8058V78.8774H47.8049ZM5.32783 82.3189V62.8731L11.9041 81.5337C13.9265 81.3067 15.9519 81.093 17.9829 80.8911V47.7515H12.6538V67.8941L5.5575 47.7515H0V83.0179H0.0333667C1.794 82.7744 3.5607 82.543 5.32783 82.3189ZM37.258 52.8631V47.7515H23.9967V80.3386C28.4089 79.9577 32.8261 79.6383 37.2472 79.3805V74.2641C34.6836 74.4132 32.1252 74.5848 29.5728 74.7759V66.5998H36.2449V61.4903H29.5728V52.8631H37.258ZM88.2327 74.0197V47.7498H82.6544V78.896C87.0918 79.059 91.5118 79.286 95.917 79.572V74.4526C93.3604 74.2875 90.7994 74.1445 88.2327 74.0197Z" fill="#B81D24"/>
</g>
<defs>
<clipPath id="clip0_5_215">
<rect width="130" height="130" fill="white" transform="translate(0 0.383392)"/>
</clipPath>
</defs>
</svg>
