<svg xmlns="http://www.w3.org/2000/svg" viewBox="-0.5 -0.5 24 24" height="24" width="24"><defs></defs><path d="M0.4791666666666667 4.3125v8.625a1.9166666666666667 1.9166666666666667 0 0 0 1.9166666666666667 1.9166666666666667h15.333333333333334a1.9166666666666667 1.9166666666666667 0 0 0 1.9166666666666667 -1.9166666666666667l0 -8.625Z" fill="#9feaff" stroke-width="1"></path><path d="m19.64391666666667 7.1875 0 -2.875" stroke="#00303e" stroke-linecap="round" stroke-linejoin="round" fill="none" stroke-width="1"></path><path d="M0.4791666666666667 4.3125v8.625a1.902291666666667 1.902291666666667 0 0 0 0.6392083333333334 1.4192916666666668L11.164583333333335 4.3125Z" fill="#dff9ff" stroke-width="1"></path><path d="M0.4791666666666667 4.3125v8.625a1.9224166666666664 1.9224166666666664 0 0 0 1.9166666666666667 1.9166666666666667h5.75" stroke="#00303e" stroke-linecap="round" stroke-linejoin="round" fill="none" stroke-width="1"></path><path d="M19.645833333333336 2.3958333333333335v1.9166666666666667H0.4791666666666667v-1.9166666666666667a1.9224166666666664 1.9224166666666664 0 0 1 1.9166666666666667 -1.9166666666666667h15.333333333333334a1.9166666666666667 1.9166666666666667 0 0 1 1.9166666666666667 1.9166666666666667Z" fill="#ffffff" stroke="#00303e" stroke-linecap="round" stroke-linejoin="round" stroke-width="1"></path><path d="M3.1165 2.15625a0.23958333333333334 0.23958333333333334 0 1 0 0.23958333333333334 0.23958333333333334 0.23958333333333334 0.23958333333333334 0 0 0 -0.23958333333333334 -0.23958333333333334h0" stroke="#00303e" stroke-linecap="round" stroke-linejoin="round" fill="none" stroke-width="1"></path><path d="M5.512333333333333 2.15625A0.23958333333333334 0.23958333333333334 0 1 0 5.75 2.3958333333333335a0.23958333333333334 0.23958333333333334 0 0 0 -0.23958333333333334 -0.23958333333333334h0" stroke="#00303e" stroke-linecap="round" stroke-linejoin="round" fill="none" stroke-width="1"></path><path d="M7.908166666666667 2.15625a0.23958333333333334 0.23958333333333334 0 1 0 0.23958333333333334 0.23958333333333334 0.23958333333333334 0.23958333333333334 0 0 0 -0.23958333333333334 -0.23958333333333334h0" stroke="#00303e" stroke-linecap="round" stroke-linejoin="round" fill="none" stroke-width="1"></path><path d="M16.770833333333336 22.520833333333336a5.75 5.75 0 1 0 -5.75 -5.75 5.75 5.75 0 0 0 5.75 5.75Z" fill="#dff9ff" stroke-width="1"></path><path d="M16.770833333333336 19.867208333333334a5.75 5.75 0 0 1 -5.589958333333334 -4.4227083333333335 5.75 5.75 0 1 0 11.179916666666667 0 5.75 5.75 0 0 1 -5.589958333333334 4.4227083333333335Z" fill="#9feaff" stroke-width="1"></path><path d="M16.770833333333336 22.520833333333336a5.75 5.75 0 1 0 -5.75 -5.75 5.75 5.75 0 0 0 5.75 5.75Z" stroke="#00303e" stroke-linecap="round" stroke-linejoin="round" fill="none" stroke-width="1"></path><path d="M16.770833333333336 12.9375v3.8333333333333335h2.875" stroke="#00303e" stroke-linecap="round" stroke-linejoin="round" fill="none" stroke-width="1"></path><path d="M13.895833333333334 9.104166666666668h5.75" stroke="#00303e" stroke-linecap="round" stroke-linejoin="round" fill="none" stroke-width="1"></path><path d="M16.770833333333336 11.020833333333334v-1.9166666666666667" stroke="#00303e" stroke-linecap="round" stroke-linejoin="round" fill="none" stroke-width="1"></path></svg>