<svg width="48" height="47" viewBox="0 0 48 47" fill="none" xmlns="http://www.w3.org/2000/svg">
<g clip-path="url(#clip0_5_286)">
<path d="M16.823 21.9825C16.823 20.5844 17.8424 19.6082 19.6948 19.6082C20.8251 19.6082 21.75 19.9691 22.2511 20.3226C22.3228 20.3731 22.4507 20.4956 22.374 20.7233C22.2757 20.9686 22.0954 21.3375 21.9661 21.5772C21.8908 21.7168 21.6985 21.6984 21.6 21.6485C21.2431 21.4676 20.6576 21.1617 20.1198 21.1052C19.9837 21.0904 19.8467 21.0845 19.7097 21.0875C19.2361 21.0981 18.8404 21.2625 18.701 21.6239C18.6737 21.6922 18.6585 21.7648 18.656 21.8384C18.643 22.3146 19.3057 22.4868 20.1085 22.6247C21.601 22.8804 22.7302 23.318 22.7302 24.8542C22.7302 26.1587 21.6934 27.3377 19.662 27.3016C18.3228 27.2745 17.3727 26.822 16.8636 26.3829C16.8462 26.368 16.6524 26.1706 16.7563 25.9333C16.8752 25.6277 17.0759 25.2774 17.2333 25.0915C17.3209 24.972 17.552 24.9531 17.6721 25.0275C18.0917 25.2883 18.7824 25.7064 19.5785 25.7342C19.6413 25.7363 19.7036 25.7367 19.7647 25.7351C20.4808 25.7178 20.9141 25.4462 20.905 24.9888C20.8973 24.5859 20.3295 24.3505 19.4253 24.1801C17.9833 23.9084 16.8232 23.4331 16.8232 21.9825M29.9236 23.9732C28.9067 23.9865 27.9744 24.2644 27.9475 25.0591C27.9472 25.6897 28.4588 25.9995 29.1768 25.9589C29.8655 25.8926 30.3907 25.5939 30.6222 25.1975C30.7078 25.0506 30.7208 24.5009 30.7156 24.266C30.7143 24.216 30.6154 24.1214 30.5721 24.1032C30.356 24.0121 30.1961 23.984 29.9235 23.973M26.54 20.771C27.0155 20.3455 27.9583 19.6831 29.4609 19.718C31.4439 19.7593 32.4914 20.6889 32.589 22.9127C32.6292 23.8297 32.5626 26.3877 32.5467 27.0251C32.5443 27.1165 32.5134 27.1797 32.3902 27.1821C32.0636 27.1952 31.3092 27.19 30.9626 27.1854C30.7877 27.177 30.7674 27.0902 30.7651 26.9993C30.7636 26.9399 30.7585 26.7636 30.7548 26.6199C30.7529 26.5437 30.6812 26.5459 30.6629 26.5654C30.1978 27.062 29.436 27.3019 28.6259 27.3019C27.3947 27.3019 26.1672 26.5776 26.171 25.1432C26.1748 23.6742 27.2164 22.9496 28.3606 22.7787C29.0934 22.6696 29.9193 22.7666 30.5447 23.0151C30.5847 23.0312 30.6664 23.008 30.6671 22.9513C30.6696 22.7641 30.6606 22.4073 30.6246 22.2383C30.5328 21.8075 30.1735 21.4608 29.4185 21.3674C29.263 21.3483 29.1065 21.342 28.9497 21.3544C28.3496 21.4016 27.6274 21.8696 27.3283 22.0448C27.2579 22.0859 27.1477 22.0558 27.112 22.0099C26.9375 21.7844 26.4988 21.1249 26.4642 21.0195C26.4297 20.9144 26.4784 20.8259 26.5398 20.7706L26.54 20.771ZM33.2428 23.5056C33.231 21.4568 34.6585 19.7284 36.9765 19.7132C38.4228 19.7038 39.4736 20.3595 39.6589 20.6688C39.6965 20.7414 39.6772 20.8021 39.6512 20.8752C39.5287 21.1337 39.2194 21.6332 38.999 21.9163C38.9051 22.0368 38.8032 21.9335 38.6848 21.8547C38.3562 21.6359 37.7318 21.3682 37.1173 21.3682C36.0025 21.3684 35.1723 22.1328 35.1816 23.5392C35.1903 24.8887 35.9854 25.6304 37.1212 25.6573C37.7149 25.6722 38.2902 25.3309 38.5996 25.0514C38.6968 24.9666 38.7974 25.009 38.9084 25.0958C39.1264 25.3186 39.439 25.6625 39.6123 25.8992C39.7258 26.0307 39.6409 26.1594 39.6 26.2111C39.1298 26.8062 38.2216 27.307 37.0197 27.3138C34.503 27.3314 33.2546 25.5619 33.243 23.5058M45.2559 27.2214C45.3741 27.2125 46.6347 27.0385 47.0216 26.95C47.1176 26.9281 47.1518 26.8473 47.0981 26.7673C46.882 26.4433 46.314 25.5232 45.719 24.6995C45.1718 23.9422 44.595 23.2761 44.4085 23.0199C44.363 22.9576 44.3655 22.8963 44.415 22.848C44.7699 22.5008 46.2542 21.0454 46.8122 20.4444C47.0283 20.2106 46.8986 20.1101 46.715 20.0554C46.3606 19.9498 45.7872 19.818 45.4612 19.7493C45.3237 19.7202 45.1581 19.7304 45.0379 19.854C44.4799 20.3743 42.777 22.0834 42.2687 22.5943C42.1772 22.6865 42.1239 22.6661 42.1234 22.5343C42.1192 21.5493 42.0998 17.3321 42.0646 16.6385C42.0621 16.5468 41.9519 16.4772 41.8897 16.4739C41.57 16.4572 40.7625 16.4523 40.4443 16.471C40.3551 16.4811 40.2699 16.572 40.2622 16.6488C40.1888 17.7579 40.2933 25.9 40.3369 27.039C40.34 27.1214 40.4013 27.1853 40.4795 27.1899C40.797 27.2083 41.5823 27.2071 41.9489 27.2002C42.1293 27.2002 42.1514 27.0734 42.1514 27.0734L42.1786 24.8885C42.1786 24.8885 42.1972 24.7914 42.2273 24.7593C42.3565 24.6201 42.7141 24.2369 42.8666 24.0887C42.9032 24.0532 42.9609 24.0557 42.9983 24.106C43.1794 24.3504 43.696 25.1448 44.1748 25.8543C44.6148 26.506 45.0255 27.0845 45.0541 27.1253C45.1204 27.2197 45.1977 27.2235 45.256 27.2217V27.2214H45.2559ZM23.8168 27.2138C23.9277 27.2175 24.7688 27.2166 25.1415 27.2161C25.2669 27.2186 25.3321 27.1236 25.3363 27.0397C25.4155 25.4427 25.3816 17.8395 25.3316 16.639C25.3274 16.5352 25.283 16.4962 25.2121 16.4868C24.8923 16.4439 23.9833 16.4539 23.692 16.5302C23.635 16.545 23.6014 16.5883 23.5996 16.644C23.5283 19.7386 23.5764 26.8732 23.5915 27.0084C23.6065 27.1437 23.6773 27.2091 23.817 27.2138H23.8168Z" fill="#443642"/>
<path d="M1.30585 24.0386C0.7875 24.0426 0.348401 23.7337 0.186499 23.2516C0.180493 23.2334 0.174893 23.215 0.169705 23.1966C-0.00672722 22.5792 0.335381 21.9332 0.948554 21.7264L10.7835 18.4315C10.9002 18.3977 11.0211 18.3801 11.1426 18.379C11.6748 18.3749 12.126 18.6906 12.2918 19.1829L12.3065 19.2304C12.4905 19.8735 12.0334 20.4475 11.4857 20.6315C11.4853 20.6318 11.3857 20.6655 1.70532 23.9706C1.57665 24.0145 1.44179 24.0374 1.30585 24.0386Z" fill="#70CADB"/>
<path d="M2.94516 28.8754C2.42275 28.8792 1.98214 28.5746 1.82212 28.0994C1.81605 28.0813 1.81039 28.0631 1.80514 28.0448C1.62626 27.42 1.96799 26.7673 2.58324 26.5602L12.4185 23.2351C12.5456 23.1926 12.6768 23.1709 12.8088 23.1697C13.3327 23.1657 13.7929 23.4858 13.9553 23.9664L13.9704 24.0164C14.0654 24.3486 14.0092 24.7219 13.8204 25.0166C13.6796 25.2356 13.2356 25.4285 13.2356 25.4285L3.36293 28.8042C3.22828 28.8498 3.0873 28.8739 2.94516 28.8756V28.8754Z" fill="#E01765"/>
<path d="M11.1324 28.8965C10.8774 28.8989 10.6283 28.8206 10.4206 28.6728C10.2129 28.5249 10.0573 28.3151 9.97613 28.0735L6.69373 18.3235L6.67732 18.2687C6.49947 17.647 6.84148 16.9984 7.45447 16.7918C7.57712 16.7506 7.70393 16.7291 7.83158 16.7279C8.02122 16.7265 8.20473 16.7693 8.37757 16.8546C8.51995 16.9251 8.64701 17.0229 8.75143 17.1426C8.85585 17.2623 8.93558 17.4015 8.98603 17.5521L12.2681 27.3012L12.2777 27.3325C12.462 27.9781 12.1208 28.627 11.5078 28.8336C11.3867 28.8741 11.26 28.8953 11.1324 28.8965Z" fill="#E8A723"/>
<path d="M6.25331 30.5387C5.99823 30.5411 5.74893 30.4628 5.54114 30.3148C5.33335 30.1668 5.17773 29.9569 5.09659 29.715L1.81505 19.9654C1.7642 19.815 1.74352 19.6561 1.75419 19.4976C1.76486 19.3392 1.80667 19.1845 1.87723 19.0422C1.94779 18.9 2.04571 18.7731 2.16538 18.6687C2.28505 18.5644 2.42413 18.4847 2.57465 18.4341C2.69591 18.3936 2.82278 18.3723 2.95063 18.3711C3.2056 18.3686 3.45483 18.4469 3.66257 18.5947C3.87032 18.7426 4.02592 18.9524 4.10706 19.1941L7.3887 28.9441C7.43957 29.0946 7.46025 29.2536 7.44954 29.4121C7.43884 29.5706 7.39697 29.7254 7.32632 29.8677C7.25568 30.01 7.15766 30.1369 7.03787 30.2413C6.91808 30.3456 6.77888 30.4252 6.62825 30.4757C6.50723 30.5162 6.38057 30.5375 6.25293 30.5386L6.25331 30.5387Z" fill="#3EB890"/>
<path d="M9.51419 26.7008L11.8029 25.9183L11.0547 23.6964L8.76337 24.4707L9.51419 26.7008Z" fill="#CC2027"/>
<path d="M4.64269 28.3664L6.93121 27.584L6.17737 25.3451L3.88658 26.1197L4.64269 28.3664Z" fill="#361238"/>
<path d="M7.88478 21.8611L10.1737 21.0796L9.43427 18.8836L7.14113 19.6519L7.88478 21.8611Z" fill="#65863A"/>
<path d="M3.01272 23.5244L5.30162 22.7429L4.55316 20.519L2.26001 21.2871L3.01272 23.5244Z" fill="#1A937D"/>
</g>
<defs>
<clipPath id="clip0_5_286">
<rect width="47" height="47" fill="white" transform="translate(0.123383 -0.0010376)"/>
</clipPath>
</defs>
</svg>
