<svg width="48" height="47" viewBox="0 0 48 47" fill="none" xmlns="http://www.w3.org/2000/svg">
<g clip-path="url(#clip0_5_218)">
<path d="M7.94901 28.6716L4.87406 28.6153C3.87843 28.5958 2.88036 28.6349 1.9043 28.4319C0.419418 28.1285 0.314228 26.6412 0.204147 25.3936C0.0524784 23.6396 0.111189 21.8539 0.397401 20.1146C0.558854 19.1385 1.19488 18.5563 2.17828 18.4927C5.49785 18.2628 8.83945 18.2897 12.1517 18.3973C12.5015 18.4071 12.8538 18.4609 13.1987 18.5221C14.9013 18.8205 14.9429 20.506 15.0529 21.9248C15.163 23.3583 15.1165 24.7992 14.9062 26.2229C14.7374 27.402 14.4145 28.3903 13.0519 28.4857C11.3444 28.6104 9.67607 28.7107 7.96368 28.6789C7.96368 28.6716 7.9539 28.6716 7.94901 28.6716ZM6.14122 25.6872C7.42795 24.9484 8.69022 24.2218 9.96962 23.488C8.68044 22.7492 7.42061 22.0227 6.14122 21.2888V25.6872Z" fill="#FF0000"/>
<path d="M39.7969 27.331C39.7381 27.5707 39.6868 27.7591 39.6354 27.9597H38.4318V18.6761H39.836V22.1009C39.9094 22.008 39.9461 21.9688 39.9779 21.9272C40.2176 21.597 40.5283 21.3817 40.9295 21.2985C41.5679 21.1738 42.1135 21.4551 42.3067 22.0691C42.4315 22.4507 42.5122 22.8593 42.522 23.258C42.5416 24.283 42.5269 25.3055 42.4902 26.3305C42.4755 26.6436 42.3801 26.9641 42.2602 27.2576C41.8664 28.2263 40.5797 28.3731 39.9412 27.5341C39.902 27.4827 39.8654 27.4264 39.7969 27.331ZM39.8654 24.7771V26.4748C39.8654 26.7513 40.0121 26.92 40.2886 26.9836C40.5601 27.0472 40.7803 26.9421 40.8903 26.6901C40.9368 26.5849 40.9833 26.4748 40.9857 26.3647C41.0126 25.3275 41.0371 24.2903 41.0445 23.2507C41.0445 23.0574 40.998 22.8568 40.9393 22.6684C40.8292 22.3284 40.5258 22.2281 40.2274 22.4263C40.0023 22.5779 39.8654 22.7932 39.8654 23.0794V24.7771ZM36.0492 21.4306H37.5194V27.9646H36.3721C36.3305 27.7175 36.2889 27.4631 36.24 27.1647C36.1617 27.2796 36.1152 27.353 36.0663 27.4264C35.6847 27.9768 35.1441 28.1652 34.5056 28.0649C33.9601 27.9768 33.6323 27.5561 33.5589 26.8662C33.5369 26.6607 33.5271 26.4528 33.5271 26.2473C33.5222 24.7184 33.5271 23.1846 33.5271 21.6557V21.4257H35.0144V21.6924C35.0144 23.1699 35.0095 24.645 35.0193 26.1226C35.0193 26.3329 35.0413 26.5507 35.078 26.761C35.1196 26.9763 35.2762 27.0546 35.4865 27.0399C35.8266 27.013 36.0614 26.761 36.0614 26.4235V21.7193C36.0492 21.6239 36.0492 21.5358 36.0492 21.4306ZM25.9266 21.4257H27.4041V21.7022C27.4041 23.1724 27.3992 24.6401 27.409 26.1054C27.409 26.3158 27.4286 26.5335 27.4726 26.739C27.5289 26.9812 27.6707 27.0595 27.9129 27.0277C28.2481 26.9812 28.4511 26.7488 28.4535 26.4088V21.7291V21.4355H29.9237V27.9646H28.7813C28.7398 27.7224 28.6982 27.4729 28.6444 27.1573C28.571 27.2674 28.5294 27.331 28.4878 27.3971C28.1062 27.9573 27.5704 28.1627 26.9173 28.0624C26.3938 27.9842 26.0733 27.5977 25.9755 26.9641C25.9486 26.7659 25.929 26.5702 25.929 26.3721C25.9241 24.7845 25.9241 23.1895 25.9241 21.6019L25.9266 21.4257ZM25.1682 24.9141C25.1633 25.1343 25.1487 25.3544 25.1364 25.5746C25.0802 26.2351 25.0532 27.172 24.52 27.6539C24.1799 27.9573 23.7494 28.0673 23.3042 28.082C23.106 28.0869 22.9054 28.0869 22.7073 28.06C21.7704 27.9181 21.3349 27.5047 21.1784 26.4748C20.9998 25.2859 20.9851 24.0775 21.1979 22.8886C21.4181 21.6581 22.1764 21.2227 23.3555 21.3034C24.4564 21.3817 24.9481 22.1034 25.0777 23.1308C25.1486 23.7203 25.1829 24.3172 25.1682 24.9141ZM23.6711 24.6891C23.6711 24.2707 23.6809 23.85 23.6662 23.4317C23.6564 23.1895 23.6246 22.9449 23.5733 22.7051C23.5145 22.4287 23.3384 22.2966 23.1183 22.3015C22.903 22.3064 22.7513 22.4385 22.673 22.6954C22.6461 22.7908 22.6168 22.8886 22.6168 22.984C22.6168 23.6396 22.6119 24.2977 22.607 24.9533C22.6021 25.5648 22.5238 26.2057 22.7171 26.7904C22.7758 26.969 22.9274 27.0668 23.1256 27.0668C23.3188 27.0668 23.4461 26.9714 23.517 26.8002C23.5733 26.6681 23.6222 26.5237 23.6222 26.3819C23.6393 25.8192 23.6711 25.2541 23.6711 24.6891ZM19.0208 23.4586C19.1504 22.825 19.2727 22.2061 19.4073 21.5848C19.5761 20.7946 19.7644 20.0045 19.9308 19.2119C19.9724 19.0186 20.0506 18.9721 20.2341 18.977C20.628 18.9917 21.0291 18.9819 21.4499 18.9819C21.3129 19.4859 21.1784 19.9653 21.0463 20.4375C20.628 21.9199 20.2097 23.4072 19.7962 24.8945C19.7644 25.0095 19.7498 25.1343 19.7498 25.2566C19.7449 26.0687 19.7498 26.8785 19.7498 27.6906V27.9548H18.3138C18.3089 27.8814 18.2991 27.808 18.2991 27.7346C18.2991 27.2748 18.2624 26.8124 18.304 26.3574C18.4092 25.2639 18.0618 24.2585 17.7805 23.2409C17.4087 21.8954 17.032 20.5451 16.6601 19.1996C16.6406 19.136 16.6332 19.0675 16.6136 18.9893H18.079C18.3872 20.4741 18.6979 21.959 19.0208 23.4586ZM47.1161 25.1636H44.6405C44.6674 25.6602 44.6771 26.1323 44.7285 26.5996C44.7652 26.9249 44.9438 27.0644 45.2251 27.0668C45.5187 27.0717 45.6899 26.9249 45.7584 26.602C45.7804 26.4968 45.7951 26.3917 45.8049 26.284C45.8147 26.1886 45.8196 26.0859 45.8269 25.9489C46.2452 25.9709 46.6537 25.9954 47.0574 26.0125C47.2922 26.7097 46.869 27.605 46.1571 27.8814C45.5969 28.1016 45.0221 28.1016 44.4496 27.9328C44.0264 27.808 43.7109 27.5389 43.569 27.1255C43.4369 26.739 43.3121 26.3354 43.2852 25.9318C43.2118 24.9361 43.1849 23.9307 43.3366 22.9326C43.3635 22.7663 43.41 22.6073 43.4614 22.4458C43.6668 21.7805 44.1145 21.3719 44.8068 21.3034C45.1835 21.2667 45.5725 21.2814 45.9443 21.345C46.5461 21.4502 46.8665 21.8832 47.006 22.4507C47.0696 22.7174 47.1161 22.9914 47.1259 23.2629C47.1283 23.8867 47.1161 24.5056 47.1161 25.1636ZM45.7095 24.305C45.7095 23.8133 45.7144 23.351 45.7046 22.8862C45.7046 22.7761 45.663 22.6611 45.6214 22.5559C45.5382 22.3504 45.3645 22.2942 45.1566 22.2942C44.9487 22.2942 44.8166 22.3994 44.7652 22.5877C44.6087 23.1528 44.66 23.7301 44.6649 24.3099C45.0392 24.305 45.3792 24.305 45.7095 24.305Z" fill="#282828"/>
<path d="M31.0588 20.1806H29.6033V19.0015H33.9479V20.1733H32.5021V27.9548H31.0613L31.0588 20.1806Z" fill="#282828"/>
</g>
<defs>
<clipPath id="clip0_5_218">
<rect width="47" height="47" fill="white" transform="translate(0.123413 -0.0010376)"/>
</clipPath>
</defs>
</svg>
